<?xml version="1.0" encoding="UTF-8"?>
<svg version="1.1" xmlns="http://www.w3.org/2000/svg" width="653" height="616">
<path d="M0 0 C5.36337487 0.65797049 10.06550426 2.34103968 15.08984375 4.2265625 C15.99733871 4.56201584 16.90483368 4.89746918 17.83982849 5.24308777 C19.82488555 5.97749715 21.80904671 6.71433151 23.79241943 7.45327759 C28.12179299 9.06621688 32.45540371 10.66762437 36.78881836 12.26966858 C39.13001343 13.13525547 41.47099107 14.00143064 43.81176758 14.8681488 C52.87468971 18.22194738 61.9481519 21.54601331 71.02734375 24.85546875 C71.70082855 25.10096844 72.37431335 25.34646812 73.06820679 25.5994072 C76.47632884 26.84160225 79.88459152 28.08341098 83.29290771 29.32507324 C101.9812403 36.13389291 120.66648122 42.95095607 139.3125 49.875 C140.03387146 50.14253082 140.75524292 50.41006165 141.49847412 50.68569946 C143.45395568 51.41140599 145.40878591 52.13882967 147.36328125 52.8671875 C148.94556519 53.45669189 148.94556519 53.45669189 150.55981445 54.05810547 C153 55 153 55 155 56 C156.02428194 58.35287257 156.93613998 60.68031435 157.80859375 63.08984375 C158.0869809 63.84019394 158.36536804 64.59054413 158.65219116 65.3636322 C159.26302689 67.0121823 159.87063832 68.66192968 160.47549438 70.31268311 C161.78996061 73.89918311 163.12019673 77.47976363 164.44981384 81.06066895 C165.16495578 82.98674689 165.87934231 84.91310546 166.59303284 86.83972168 C170.53067393 97.46007752 174.55113397 108.04867678 178.57974243 118.63479614 C179.80681744 121.86006384 181.03188335 125.08608888 182.2565918 128.31225586 C185.62616046 137.18221617 189.00263646 146.04853593 192.46484375 154.8828125 C192.71277176 155.51750458 192.96069977 156.15219666 193.21614075 156.80612183 C194.30097137 159.58285878 195.39250971 162.35642744 196.49926758 165.12451172 C196.85529053 166.03217285 197.21131348 166.93983398 197.578125 167.875 C197.88137695 168.63554687 198.18462891 169.39609375 198.49707031 170.1796875 C199 172 199 172 198 174 C192.15506591 169.34016081 186.46974257 164.59150143 181 159.5 C177.29140833 156.048345 173.51494067 152.73477822 169.5625 149.5625 C165.37761954 146.1965314 161.41691504 142.66818547 157.5 139 C152.76422331 134.56601643 147.91342438 130.36355612 142.828125 126.328125 C140 124 140 124 138.24739075 122.05010986 C133.93099004 117.5274958 130.79030503 115.46688578 124.47045898 115.09179688 C121.97864486 115.09305101 119.48658389 115.13752168 116.99609375 115.21875 C115.67706558 115.23006958 114.35803741 115.24138916 112.9990387 115.25305176 C109.52085246 115.28335144 106.04541204 115.36170411 102.56829834 115.45068359 C99.00880063 115.53306663 95.4488516 115.5691736 91.88867188 115.609375 C84.92466529 115.69473441 77.96246504 115.83095859 71 116 C71.79736572 116.92941406 72.59473145 117.85882813 73.41625977 118.81640625 C74.4871518 120.0650957 75.5580334 121.3137941 76.62890625 122.5625 C77.15150024 123.17158203 77.67409424 123.78066406 78.21252441 124.40820312 C93.15829937 141.83821603 93.15829937 141.83821603 96.16674805 145.99072266 C99.08897187 149.47755361 102.54668866 150.7617693 106.8046875 152.0859375 C107.58077362 152.34498871 108.35685974 152.60403992 109.15646362 152.87094116 C111.72377386 153.72357219 114.29902989 154.54894202 116.875 155.375 C118.67939308 155.96961366 120.48309271 156.56633532 122.28613281 157.16503906 C126.1390098 158.44260911 129.99478812 159.71086086 133.85253906 160.97363281 C143.46517316 164.13023331 153.03608014 167.41041729 162.61090088 170.67950439 C165.71462267 171.73793562 168.81973477 172.79218538 171.92529297 173.84521484 C173.84082771 174.49574643 175.75635541 175.14629877 177.671875 175.796875 C178.54407684 176.09210052 179.41627869 176.38732605 180.31491089 176.6914978 C184.25413596 178.03184656 188.15762051 179.39688803 192 181 C192 181.66 192 182.32 192 183 C189.64054978 184.91421378 187.26940488 186.71830686 184.8125 188.5 C183.32241825 189.59828243 181.83284046 190.69724892 180.34375 191.796875 C179.60125 192.34279297 178.85875 192.88871094 178.09375 193.45117188 C175.30415444 195.51474396 172.55695088 197.62666169 169.8125 199.75 C156.00192484 210.406308 142.11126758 220.95655378 128.13256836 231.39135742 C127.34116455 231.98279541 126.54976074 232.5742334 125.734375 233.18359375 C125.03538086 233.70493896 124.33638672 234.22628418 123.61621094 234.76342773 C122.05263193 235.90339685 122.05263193 235.90339685 121 237 C115.42957035 237.21595586 110.25159931 236.73403643 104.77020264 235.79911804 C103.97962688 235.66962053 103.18905112 235.54012301 102.37451851 235.40670133 C99.73919188 234.9734373 97.10548556 234.53103033 94.47167969 234.08862305 C92.56810592 233.77373193 90.66443763 233.45941177 88.76068306 233.14561558 C83.56978407 232.28835824 78.38023428 231.4231689 73.19086981 230.55667782 C67.67109823 229.63650212 62.15007531 228.72389601 56.62918091 227.81048584 C45.99909556 226.05064058 35.3700926 224.2843446 24.74146545 222.5157162 C11.35727316 220.28881092 -2.02809906 218.06903266 -15.41357422 215.84985352 C-17.21458544 215.55125437 -17.21458544 215.55125437 -19.05198073 215.24662292 C-23.88774397 214.44488097 -28.72350734 213.64313984 -33.55928552 212.84148806 C-40.77491684 211.64526551 -47.9904209 210.4482788 -55.20583522 209.2507481 C-82.33819514 204.74796956 -109.4743213 200.27065622 -136.62333679 195.86935782 C-139.48037589 195.40605382 -142.33730943 194.94210094 -145.19424009 194.47812885 C-157.09339622 192.54579176 -168.99320613 190.61774565 -180.89613914 188.70878792 C-185.23555657 188.01128119 -189.5739415 187.30752026 -193.91205215 186.60193634 C-195.86034843 186.28658817 -197.80911584 185.97413419 -199.75838852 185.66487885 C-202.33642295 185.25578269 -204.91270704 184.83707702 -207.48876953 184.41577148 C-208.60616957 184.24241791 -208.60616957 184.24241791 -209.74614334 184.06556225 C-214.77182075 183.22817925 -214.77182075 183.22817925 -217 181 C-193.98445577 170.74028817 -170.93519318 160.55983981 -147.85598755 150.44418335 C-141.70753837 147.74923757 -135.56040252 145.05131497 -129.4140625 142.3515625 C-108.61703211 133.21682966 -87.81359851 124.09692242 -67 115 C-66.76483608 112.63086968 -66.76483608 112.63086968 -69.5625 110.42578125 C-70.7030696 109.38223839 -71.84927347 108.3448319 -73 107.3125 C-73.59723877 106.76940186 -74.19447754 106.22630371 -74.80981445 105.66674805 C-78.51998787 102.30212753 -82.26423958 98.9777129 -86.05078125 95.69921875 C-90.95348303 91.4253204 -95.75112166 87.03080529 -100.578125 82.671875 C-104.36474959 79.25694362 -108.15583617 75.85013474 -112 72.5 C-117.58979989 67.62856797 -123.07534898 62.6410485 -128.578125 57.671875 C-129.41859375 56.91390625 -130.2590625 56.1559375 -131.125 55.375 C-132.34896484 54.27091797 -132.34896484 54.27091797 -133.59765625 53.14453125 C-136.53163168 50.52542147 -139.50893938 47.95919244 -142.50390625 45.41015625 C-144 44 -144 44 -145 42 C-129.95784118 41.75283863 -114.98071212 42.52374304 -99.9609375 43.27734375 C-97.26351576 43.41023116 -94.56603686 43.54194214 -91.86856079 43.67372131 C-86.2423124 43.94922299 -80.61622341 44.2277988 -74.99023438 44.50854492 C-67.81460964 44.86660582 -60.63874484 45.21959388 -53.46278954 45.57096004 C-47.23077419 45.87614255 -40.99887156 46.18360404 -34.76698732 46.49145055 C-32.79314833 46.58887091 -30.81929419 46.68598421 -28.84543991 46.78309441 C-2.50786205 48.08192872 -2.50786205 48.08192872 10 49 C9.65219482 47.43487671 9.65219482 47.43487671 9.29736328 45.83813477 C2.96142578 17.32641602 2.96142578 17.32641602 2.48931885 15.18630981 C2.14625404 13.653473 1.79366325 12.12275173 1.434021 10.59371948 C1.250672 9.80474274 1.067323 9.01576599 0.87841797 8.20288086 C0.71034637 7.49296494 0.54227478 6.78304901 0.36911011 6.05162048 C0 4 0 4 0 0 Z " fill="#37B9F3" transform="translate(270,2)"/>
<path d="M0 0 C1.24728661 -0.00128164 1.24728661 -0.00128164 2.51977092 -0.00258917 C5.31584002 -0.00424089 8.1118496 0.00127241 10.90791321 0.00672913 C12.90833027 0.00701109 14.90874743 0.00685308 16.90916443 0.00628662 C22.34890496 0.00599901 27.78862356 0.01188996 33.22835898 0.01886058 C38.90985742 0.02510007 44.59135633 0.02569839 50.27285767 0.02688599 C61.03567508 0.02999754 71.79848238 0.03820857 82.56129533 0.04823548 C94.81264194 0.05940206 107.06398902 0.06490844 119.31533945 0.06993091 C144.52108905 0.08039132 169.72682967 0.09798738 194.93257141 0.12025452 C192.51243479 2.54039114 191.09399375 2.72960535 187.77935791 3.47949219 C186.68736084 3.73033066 185.59536377 3.98116913 184.47027588 4.23960876 C182.66485069 4.64253647 182.66485069 4.64253647 180.82295227 5.05360413 C179.55939911 5.34168442 178.29584595 5.62976471 176.9940033 5.92657471 C174.24212573 6.55394155 171.48925517 7.176678 168.73553276 7.79589653 C164.37513739 8.77649498 160.01718122 9.76763747 155.65951538 10.76028442 C147.97223689 12.50997886 140.28296391 14.25077398 132.59321594 15.98957825 C121.0409247 18.60182084 109.49011203 21.22056421 97.94134432 23.84834105 C93.61621497 24.83211332 89.29003949 25.8111013 84.9629544 26.78623378 C82.91294351 27.24889293 80.86341364 27.71361737 78.81407166 28.17922974 C76.32469021 28.74475173 73.83457424 29.30705502 71.34356689 29.8653717 C59.01175748 31.93140087 59.01175748 31.93140087 49.44819641 38.93666077 C48.91259094 39.69140686 48.37698547 40.44615295 47.82514954 41.22377014 C47.28309875 42.03523499 46.74104797 42.84669983 46.18257141 43.68275452 C45.58895813 44.52902405 44.99534485 45.37529358 44.38374329 46.24720764 C43.15230089 48.00361276 41.92966554 49.76622453 40.71577454 51.5348053 C38.01961637 55.44393932 35.22376272 59.27873877 32.43257141 63.12025452 C31.35940439 64.60965749 30.28648933 66.09924204 29.21382141 67.58900452 C25.81877304 72.28984072 22.37861337 76.95673154 18.93257141 81.62025452 C14.36262476 87.80832889 9.81455575 94.01114114 5.30757141 100.24525452 C4.84221985 100.88785217 4.37686829 101.53044983 3.89741516 102.19252014 C2.90416347 103.56934464 1.92773112 104.95840718 0.9654541 106.35705566 C-0.55976355 108.43021004 -2.07879052 110.27025811 -3.78890991 112.17495728 C-14.74879775 125.06865759 -16.90563413 140.24387202 -19.70330977 156.38615632 C-20.39363682 160.31378012 -21.13352223 164.23207292 -21.86779785 168.15167236 C-23.24613718 175.54941406 -24.58140787 182.95422032 -25.90044528 190.36273926 C-27.40344889 198.79275132 -28.95379697 207.21383504 -30.50854146 215.63443339 C-32.40448502 225.90420931 -34.29411411 236.17503346 -36.14535522 246.45297241 C-36.27571344 247.17633518 -36.40607166 247.89969794 -36.54038012 248.64498079 C-37.14996654 252.0295887 -37.75765737 255.41451459 -38.362854 258.7999115 C-38.57406891 259.97565231 -38.78528381 261.15139313 -39.00289917 262.36276245 C-39.18549884 263.38415219 -39.36809851 264.40554193 -39.5562315 265.45788288 C-39.98781876 267.70563761 -40.48282484 269.90822458 -41.06742859 272.12025452 C-41.72742859 272.12025452 -42.38742859 272.12025452 -43.06742859 272.12025452 C-43.35017136 271.15642349 -43.63291412 270.19259247 -43.92422485 269.19955444 C-44.33255381 267.80764223 -44.74088423 266.41573045 -45.1492157 265.02381897 C-45.37289479 264.26134291 -45.59657389 263.49886684 -45.82703114 262.71328545 C-47.1203252 258.30481329 -48.41375703 253.8963816 -49.7073822 249.48800659 C-50.27230567 247.56285166 -50.83722667 245.637696 -51.40214539 243.71253967 C-51.69322741 242.72058059 -51.98430943 241.7286215 -52.28421211 240.70660305 C-54.10159269 234.51279948 -55.91793505 228.31869247 -57.73354816 222.12437057 C-63.97122046 200.84452763 -70.22187284 179.56880698 -76.5323925 158.31043816 C-78.27563084 152.435263 -80.01482447 146.55888884 -81.75412083 140.68254566 C-83.41015093 135.08968226 -85.07338504 129.49902347 -86.74167061 123.90980434 C-87.77494591 120.44192361 -88.80151515 116.97208461 -89.82624054 113.50166893 C-90.301085 111.89873317 -90.77876658 110.29663467 -91.25951385 108.69545937 C-91.91418471 106.51384517 -92.55876138 104.32948887 -93.20097351 102.1441803 C-93.74500069 100.31537827 -93.74500069 100.31537827 -94.30001831 98.44963074 C-95.68430707 92.44395398 -95.28391364 88.76329734 -92.31352234 83.39369202 C-91.71354431 82.29307434 -91.11356628 81.19245667 -90.4954071 80.05848694 C-89.83203378 78.87067604 -89.16853776 77.68293366 -88.50492859 76.49525452 C-87.82513962 75.25680291 -87.14669436 74.01761288 -86.4695282 72.77772522 C-85.05648544 70.19289393 -83.63766251 67.61136285 -82.21488953 65.03187561 C-79.11786183 59.40532281 -76.09640122 53.73845537 -73.07234192 48.07246399 C-68.89335604 40.24713328 -68.89335604 40.24713328 -66.80107117 36.49525452 C-65.54098853 34.04216588 -64.57793777 31.8591177 -63.66777039 29.29212952 C-61.16453359 22.78875339 -58.55665413 18.55165286 -52.17070007 15.3563385 C-46.16507113 12.75693434 -39.979616 10.74606375 -33.75492859 8.74525452 C-31.5989206 8.00805248 -29.44459793 7.26590211 -27.29203796 6.51869202 C-22.58251029 4.89495471 -17.86015113 3.31902206 -13.12069702 1.78495789 C-8.58449627 0.31645631 -4.74374304 -0.0176896 0 0 Z " fill="#36B8F2" transform="translate(163.0674285888672,285.87974548339844)"/>
<path d="M0 0 C4.33271613 1.66561837 7.13522766 4.87448698 10.3125 8.125 C10.89427002 8.71321533 11.47604004 9.30143066 12.07543945 9.9074707 C15.61194742 13.50731615 18.99653133 17.19442278 22.26171875 21.04296875 C25.21481578 24.36769147 28.42755509 27.43446242 31.58984375 30.55859375 C34.26854532 33.27202727 36.74608118 36.10777023 39.22265625 39.00390625 C41.94977223 42.06666727 44.89404637 44.90223493 47.8125 47.78125 C50.40196881 50.40771122 52.78836964 53.16976458 55.1875 55.96875 C57.2109288 58.23638572 59.33653347 60.3657695 61.5 62.5 C64.90588192 65.85985649 68.07245051 69.33397356 71.18359375 72.96484375 C73.88425302 75.99074371 76.78202891 78.80494182 79.69140625 81.62890625 C80.45324219 82.41136719 81.21507812 83.19382812 82 84 C82.50213013 84.47504471 83.00426025 84.95008942 83.52160645 85.43952942 C86.50797318 88.50147033 88.37928314 90.81608828 88.63647461 95.17236328 C88.61137213 96.84746874 88.55104627 98.52223821 88.46484375 100.1953125 C88.44034653 101.16220001 88.4158493 102.12908752 88.39060974 103.12527466 C88.30926159 106.05669427 88.19765152 108.98569053 88.07894135 111.91578674 C87.92952652 115.86064432 87.82475427 119.80690152 87.71142578 123.75292969 C87.40510929 134.14291045 87.0398478 144.53047941 86.66760254 154.91827393 C86.5272314 158.8671701 86.39136573 162.81621585 86.25558567 166.76527214 C86.12252981 170.62451982 85.98731908 174.48368965 85.85142326 178.34283829 C85.78756065 180.15972315 85.72417407 181.97662482 85.66131783 183.79354477 C85.26437628 195.20737917 84.72561627 206.60219765 84 218 C78.48798117 212.56385207 78.48798117 212.56385207 76.52734375 209.2421875 C75.90001343 208.19526733 75.90001343 208.19526733 75.26000977 207.12719727 C74.60536743 206.01235962 74.60536743 206.01235962 73.9375 204.875 C72.96745792 203.25572368 71.99605859 201.6372598 71.0234375 200.01953125 C70.52553711 199.1888916 70.02763672 198.35825195 69.51464844 197.50244141 C67.08486582 193.48805201 64.57657113 189.5244655 62.0625 185.5625 C61.56492187 184.77746094 61.06734375 183.99242187 60.5546875 183.18359375 C59.54362281 181.58882161 58.53222912 179.99425801 57.52050781 178.39990234 C55.48936564 175.1940373 53.46715081 171.98263029 51.45019531 168.76782227 C50.44447772 167.17695104 49.4282137 165.59269674 48.40136719 164.01538086 C45.47493328 159.49916879 42.923778 155.01647341 40.74560547 150.09082031 C36.88163353 143.36190558 36.88163353 143.36190558 30.67853546 139.00652504 C27.85786892 138.31197797 25.06348331 137.82292784 22.19067383 137.39135742 C21.1026714 137.20115367 20.01466898 137.01094992 18.89369678 136.81498241 C16.51835409 136.40243333 14.1406013 136.00358142 11.76092911 135.61678696 C7.93515093 134.98936485 4.12048006 134.31474417 0.30526733 133.62612915 C-7.48331661 132.22207055 -15.27950672 130.86392398 -23.07705331 129.51066613 C-26.97801153 128.83261396 -30.87816778 128.14998236 -34.77836609 127.46757507 C-47.98529665 125.15760622 -61.19344538 122.85465846 -74.40258789 120.55737305 C-81.74844595 119.27975894 -89.09350395 117.99764218 -96.43772477 116.71064919 C-101.06126042 115.90070307 -105.68572665 115.09637624 -110.31097472 114.29627001 C-113.17332196 113.79977239 -116.0347309 113.29802937 -118.89589882 112.79478455 C-120.85270108 112.45221525 -122.81060054 112.11593195 -124.76852417 111.77983093 C-125.9327037 111.57395355 -127.09688324 111.36807617 -128.29634094 111.15596008 C-129.81283973 110.89192871 -129.81283973 110.89192871 -131.35997486 110.62256336 C-133.84588528 110.0363429 -135.78485461 109.25042897 -138 108 C-132.40178529 102.89226332 -126.49424807 98.24600308 -120.47265625 93.65625 C-117.05970606 91.05372 -113.68258699 88.40768724 -110.3125 85.75 C-104.89144579 81.47868081 -99.45053733 77.23362777 -94 73 C-88.65509121 68.84789584 -83.31767476 64.6869316 -78 60.5 C-68.92215892 53.35403533 -59.79164276 46.27575265 -50.66796875 39.18847656 C-43.09926784 33.30842279 -35.53117998 27.42807852 -28 21.5 C-22.44861171 17.13155969 -16.88447935 12.77964805 -11.3125 8.4375 C-10.14364258 7.52484375 -10.14364258 7.52484375 -8.95117188 6.59375 C-8.22091797 6.02527344 -7.49066406 5.45679688 -6.73828125 4.87109375 C-6.08899658 4.36505615 -5.43971191 3.85901855 -4.77075195 3.33764648 C-3.22215256 2.16781661 -1.61483408 1.07655605 0 0 Z " fill="#36B8F2" transform="translate(561,136)"/>
<path d="M0 0 C0 0.66 0 1.32 0 2 C-2.21619069 3.67142873 -4.43797568 5.22013956 -6.75 6.75 C-8.23372949 7.75032892 -9.71677191 8.75167748 -11.19921875 9.75390625 C-11.98603027 10.28387207 -12.7728418 10.81383789 -13.58349609 11.35986328 C-17.60771456 14.09119281 -21.58362301 16.89071868 -25.5625 19.6875 C-32.8633285 24.80855419 -40.17725158 29.91034313 -47.5 35 C-49.4219216 36.33717261 -51.34379677 37.67441196 -53.265625 39.01171875 C-57.10693082 41.68452919 -60.95121542 44.35299001 -64.796875 47.01953125 C-66.6146857 48.28370698 -68.43239838 49.54802367 -70.25 50.8125 C-71.08982422 51.39322266 -71.92964844 51.97394531 -72.79492188 52.57226562 C-73.95604492 53.38147461 -73.95604492 53.38147461 -75.140625 54.20703125 C-75.81641602 54.6760083 -76.49220703 55.14498535 -77.18847656 55.62817383 C-81.64174533 59.00053463 -82.95159959 62.22833918 -84.46435547 67.56640625 C-84.69084778 68.33611755 -84.91734009 69.10582886 -85.1506958 69.89886475 C-85.89897467 72.45075668 -86.6331754 75.00647128 -87.3671875 77.5625 C-87.88822551 79.35138357 -88.41005845 81.14003578 -88.93264771 82.9284668 C-90.02953311 86.68955601 -91.12006447 90.45240668 -92.20556641 94.21679688 C-93.58116816 98.98713263 -94.96702012 103.75440163 -96.35714531 108.52052307 C-97.69732946 113.1168319 -99.03255952 117.71457529 -100.3671875 122.3125 C-100.61506893 123.16530548 -100.86295036 124.01811096 -101.11834335 124.89675903 C-102.54670213 129.81816894 -103.94956322 134.74593573 -105.33441353 139.67975426 C-105.96370934 141.87349014 -106.63026783 144.05221215 -107.30638123 146.23188782 C-111.88950815 161.53023352 -113.32158609 177.40829044 -115.14169335 193.21584868 C-115.62299942 197.37026809 -116.11991169 201.5228224 -116.61503601 205.6756134 C-117.54650166 213.50774444 -118.46430871 221.34141037 -119.37698191 229.17575103 C-120.41829326 238.10837669 -121.47518043 247.03913873 -122.53325522 255.96979177 C-124.70593852 274.31120093 -126.85945609 292.65481362 -129 311 C-129.66 311 -130.32 311 -131 311 C-138.75859988 292.14471234 -146.28546325 273.20405917 -153.75465393 254.23277283 C-157.31730783 245.18746911 -160.8974384 236.14911528 -164.48095703 227.11206055 C-166.24757925 222.65593605 -168.00848465 218.19761261 -169.76513672 213.73754883 C-173.96359599 203.0913494 -178.19977313 192.46450573 -182.58102417 181.89213562 C-184.59082941 177.04153123 -186.57412186 172.18011597 -188.55804443 167.31887817 C-189.51180944 164.99962445 -190.47637888 162.68478166 -191.45220947 160.37472534 C-192.80815973 157.16273499 -194.12624439 153.93747343 -195.4375 150.70703125 C-196.04970901 149.29797012 -196.04970901 149.29797012 -196.67428589 147.86044312 C-199.44647386 140.87436526 -198.78924889 136.84740882 -196 130 C-195.30775494 128.03370337 -194.62069275 126.06557674 -193.93798828 124.09594727 C-193.15161719 121.91840076 -192.36223974 119.74193826 -191.5703125 117.56640625 C-191.14316956 116.38639038 -190.71602661 115.20637451 -190.27593994 113.99060059 C-189.13103575 110.83033962 -187.98360121 107.67102651 -186.83434296 104.51234818 C-186.12287743 102.55666546 -185.41208219 100.60074036 -184.70147705 98.64474487 C-182.34305645 92.15375394 -179.98120191 85.66402512 -177.61523438 79.17578125 C-176.0033383 74.75528282 -174.39446716 70.33372463 -172.79101562 65.91015625 C-171.26355368 61.69652319 -169.72866828 57.48570237 -168.18548584 53.27780151 C-167.64872001 51.81065911 -167.11470459 50.34250728 -166.58355713 48.87332153 C-165.86305201 46.88260689 -165.13230983 44.89597434 -164.3984375 42.91015625 C-164.00317871 41.82871338 -163.60791992 40.74727051 -163.20068359 39.63305664 C-161.99930677 36.99847977 -161.20490546 35.81091652 -159 34 C-156.78648186 33.22874069 -156.78648186 33.22874069 -154.15377808 32.66131592 C-153.15398926 32.44012589 -152.15420044 32.21893585 -151.12411499 31.99104309 C-150.02725372 31.76035629 -148.93039246 31.52966949 -147.80029297 31.29199219 C-146.6434198 31.03945175 -145.48654663 30.78691132 -144.2946167 30.52671814 C-141.1125446 29.83441983 -137.92851475 29.15216364 -134.74335241 28.47425365 C-131.37780067 27.75548982 -128.01500886 27.02403406 -124.65188599 26.29400635 C-118.24398032 24.90508812 -111.8336449 23.52773559 -105.42238247 22.15440583 C-98.25964521 20.6195043 -91.09976284 19.07149893 -83.94007826 17.52243137 C-68.74238692 14.23477743 -53.54005493 10.96908923 -38.33531189 7.71420288 C-35.23417648 7.05014509 -32.13322411 6.38524104 -29.03234863 5.7199707 C-24.93337141 4.84075088 -20.83396463 3.96357784 -16.73398209 3.08905792 C-15.35367249 2.79447139 -13.97348796 2.49929809 -12.59344101 2.20348358 C-10.78554211 1.81626406 -8.97702253 1.43194562 -7.16845703 1.04785156 C-6.20295929 0.8421051 -5.23746155 0.63635864 -4.2427063 0.42437744 C-2 0 -2 0 0 0 Z " fill="#020082" transform="translate(396,304)"/>
<path d="M0 0 C1.21253723 3.63761168 0.67368119 4.69009469 -0.55126953 8.2590332 C-0.91560089 9.33478104 -1.27993225 10.41052887 -1.65530396 11.51887512 C-2.06038177 12.68440414 -2.46545959 13.84993317 -2.8828125 15.05078125 C-3.49973465 16.85907661 -3.49973465 16.85907661 -4.12911987 18.7039032 C-5.22878885 21.92138442 -6.33631267 25.13594426 -7.4475708 28.34942627 C-8.55796323 31.56715325 -9.657212 34.78867948 -10.7578125 38.00976562 C-12.39060056 42.78091349 -14.02715075 47.5507474 -15.67236328 52.31762695 C-16.04909683 53.43114532 -16.42583038 54.5446637 -16.8139801 55.69192505 C-17.5880564 57.85099709 -18.43327192 59.98622451 -19.3558197 62.08615112 C-24.21229795 73.63359074 -24.02992621 85.35712696 -24.36328125 97.71875 C-24.4439178 100.10907358 -24.52648753 102.49933264 -24.61088562 104.88952637 C-24.82651172 111.15033607 -25.01481562 117.41167947 -25.1975708 123.67352295 C-25.38814733 130.01861818 -25.60701043 136.36273462 -25.82226562 142.70703125 C-26.23092033 154.97048268 -26.63933738 167.23363597 -26.9319191 179.50048637 C-26.98881141 181.58922343 -27.07378381 183.67717105 -27.1656189 185.7646637 C-27.52189992 197.6120464 -25.28415548 209.29272635 -23.5 220.96484375 C-23.14024266 223.37171771 -22.78153657 225.77874902 -22.42382812 228.18592834 C-21.48549063 234.48578036 -20.53592497 240.78388165 -19.58300781 247.08154297 C-18.05559351 257.18371279 -16.54204489 267.28794653 -15.03491211 277.39315987 C-14.50792346 280.91193769 -13.97405065 284.4296216 -13.43945312 287.94725037 C-13.11565249 290.10534226 -12.79207288 292.26346734 -12.46875 294.42163086 C-12.31913818 295.3936998 -12.16952637 296.36576874 -12.01538086 297.36729431 C-11.28169968 302.30767771 -10.83849551 307.00541471 -11 312 C-14.89570037 308.15498718 -18.65560777 304.20287663 -22.375 300.1875 C-22.9515332 299.56584961 -23.52806641 298.94419922 -24.12207031 298.30371094 C-27.58668481 294.55738865 -31.00002168 290.77583697 -34.3359375 286.9140625 C-37.83291439 282.89171819 -41.42796411 278.95561021 -45 275 C-49.77033937 269.71740942 -54.51894407 264.42065865 -59.1953125 259.0546875 C-62.75638173 255.00030997 -66.3834804 251.0048707 -70 247 C-74.76786975 241.72014424 -79.51512218 236.42708194 -84.1875 231.0625 C-86.95841822 227.90938617 -89.77644111 224.7991546 -92.59375 221.6875 C-93.78484375 220.3571875 -93.78484375 220.3571875 -95 219 C-95.57124477 218.49155485 -96.14248955 217.9831097 -96.73104477 217.45925713 C-101.92735849 212.45366903 -102.84100007 208.46285174 -103.01535034 201.35806274 C-103.01060699 200.11213348 -103.00586365 198.86620422 -103.00097656 197.58251953 C-103.02031572 196.23793311 -103.04252014 194.89338535 -103.06735229 193.54888916 C-103.12462965 189.91631351 -103.13720757 186.28492896 -103.13786793 182.65194941 C-103.14156359 179.61033144 -103.16488071 176.56897522 -103.18733382 173.52744758 C-103.23903321 166.34675655 -103.25180905 159.16668782 -103.2421875 151.98583984 C-103.23314525 144.59780173 -103.29821406 137.21295953 -103.39847589 129.8256675 C-103.48168967 123.46430289 -103.51428067 117.10397251 -103.50784278 110.74207008 C-103.5047665 106.9502395 -103.52128172 103.16110935 -103.58844757 99.36981583 C-103.99707751 74.533533 -103.99707751 74.533533 -99.17228699 68.99024963 C-96.10608089 66.29479246 -92.73409339 64.63895419 -89 63 C-87.37843823 61.91377069 -85.77439204 60.79979091 -84.20703125 59.63671875 C-82.74436463 58.6504095 -81.27950523 57.66734449 -79.8125 56.6875 C-71.16162764 50.83607954 -62.67987516 44.77763948 -54.23828125 38.62939453 C-42.61926535 30.17113623 -30.93946269 21.80349262 -19.18359375 13.53662109 C-15.26496778 10.77903703 -11.35160991 8.01398841 -7.4375 5.25 C-5.99871947 4.23434446 -4.55991948 3.2187165 -3.12109375 2.203125 C-2.09113281 1.47609375 -1.06117188 0.7490625 0 0 Z " fill="#36B7F0" transform="translate(435,304)"/>
<path d="M0 0 C3.71286649 1.71322199 5.52431786 3.57216654 8.0625 6.8125 C8.84753906 7.79863281 9.63257813 8.78476562 10.44140625 9.80078125 C10.85664551 10.32365723 11.27188477 10.8465332 11.69970703 11.38525391 C13.91377109 14.13475066 16.20933768 16.81429939 18.5 19.5 C22.62198058 24.34876021 26.66993346 29.25163253 30.6875 34.1875 C33.26146392 37.31799666 35.87569086 40.41172461 38.5 43.5 C42.62101634 48.34959381 46.66991354 53.25160806 50.6875 58.1875 C53.26146392 61.31799666 55.87569086 64.41172461 58.5 67.5 C62.62101634 72.34959381 66.66991354 77.25160806 70.6875 82.1875 C73.26146418 85.31799698 75.87570424 88.41171278 78.5 91.5 C82.69999512 96.44293605 86.83780379 101.43167121 90.9296875 106.46484375 C91.61289062 107.30144531 92.29609375 108.13804687 93 109 C93.65774414 109.92989746 94.31548828 110.85979492 94.99316406 111.81787109 C98.55474766 116.06492995 103.26582996 118.07743738 108.1796875 120.44921875 C109.18347443 120.94734573 110.18726135 121.44547272 111.22146606 121.95869446 C114.43295821 123.54823765 117.65370032 125.11794433 120.875 126.6875 C122.97067474 127.72204693 125.06573285 128.75784396 127.16015625 129.79492188 C138.41597 135.35441901 149.72669777 140.79602414 161.05966187 146.19615173 C168.5882469 149.78848173 176.05593198 153.48585902 183.5 157.25 C192.93039455 161.99370355 202.3815024 166.6487749 212 171 C212 171.66 212 172.32 212 173 C180.38281007 174.31649658 148.75850125 175.40372418 117.13040161 176.41952515 C112.904983 176.55523927 108.67962664 176.69268581 104.45431519 176.83169556 C60.84299139 178.26340254 60.84299139 178.26340254 41 178 C40.64921387 177.36835937 40.29842773 176.73671875 39.93701172 176.0859375 C32.88902904 163.41007102 25.78255108 150.78072496 18.41162109 138.2890625 C17.33806722 136.46412097 16.28084719 134.62949734 15.23797607 132.78684998 C13.54532337 129.84941894 11.70433084 127.03844493 9.82589722 124.21669006 C0.30836686 109.40962909 -1.81031178 97.93491593 -1.26953125 80.56640625 C-1.24520043 78.22278519 -1.2267354 75.87909674 -1.21379089 73.53538513 C-1.16481044 67.44935446 -1.03771879 61.36753864 -0.89263916 55.28314209 C-0.75820119 49.04155467 -0.69997438 42.79926714 -0.63476562 36.55664062 C-0.4965098 24.36926989 -0.27547585 12.18498907 0 0 Z " fill="#020082" transform="translate(439,380)"/>
<path d="M0 0 C1.52636134 0.27029526 3.05287054 0.5397566 4.57951355 0.80845642 C8.71212823 1.53825242 12.84258235 2.27966283 16.97274184 3.02321005 C21.36288301 3.81145743 25.75495035 4.58882834 30.14680481 5.36746216 C38.51717456 6.8531311 46.88579008 8.34845064 55.25381595 9.84725869 C64.55476635 11.51270071 73.85758148 13.16759753 83.16060042 14.82143927 C94.8809228 16.90507228 106.60086608 18.99075235 118.318573 21.08905029 C119.18947771 21.24498712 120.06038243 21.40092395 120.9576782 21.56158614 C121.82308591 21.71654123 122.68849362 21.87149631 123.58012581 22.031147 C125.31017129 22.34091707 127.04021724 22.65068449 128.77026367 22.96044922 C129.61655012 23.11199636 130.46283657 23.2635435 131.33476806 23.41968298 C142.30032135 25.38259099 153.26947834 27.32321405 164.24374092 29.23682094 C168.87895669 30.04597155 173.51318477 30.86076605 178.1476078 31.67444229 C180.57638489 32.09893218 183.00570932 32.52030346 185.43559837 32.9383812 C188.69820204 33.49978092 191.95884933 34.07141 195.21923828 34.64550781 C196.16941393 34.80584629 197.11958958 34.96618477 198.09855843 35.13138199 C198.94942968 35.28324841 199.80030094 35.43511482 200.67695618 35.59158325 C201.41375768 35.71917086 202.15055918 35.84675846 202.909688 35.97821236 C203.46260863 36.14927435 204.01552927 36.32033634 204.58520508 36.49658203 C204.91520508 37.15658203 205.24520508 37.81658203 205.58520508 38.49658203 C189.29938725 38.87080748 173.01356176 39.24469736 156.72772789 39.61822414 C149.16003456 39.79180161 141.59234346 39.9654753 134.0246582 40.1394043 C127.43281237 40.29090361 120.8409621 40.44220809 114.24910665 40.59328806 C110.62624036 40.6763241 107.00337599 40.75944195 103.38051605 40.84275436 C88.21016902 41.19153112 73.03981804 41.53766617 57.86857605 41.84574032 C53.04208187 41.94426026 48.21595078 42.04888887 43.39001465 42.17195129 C41.62402827 42.21647024 39.85803719 42.26080305 38.09204102 42.30493164 C36.84253914 42.33628126 36.84253914 42.33628126 35.5677948 42.3682642 C30.67472838 42.48053422 25.80007897 42.48105349 20.90649414 42.3972168 C3.04913649 42.2374426 -11.84273942 47.22041714 -28.25457764 53.58874512 C-31.00875961 54.64812847 -33.77522852 55.67295592 -36.54282951 56.69666862 C-42.26685349 58.81418184 -47.98126156 60.95728715 -53.67602539 63.15234375 C-54.66714325 63.53349335 -55.65826111 63.91464294 -56.67941284 64.30734253 C-61.80891261 66.53745283 -65.04385293 68.89654676 -68.47729492 73.30908203 C-69.25459961 74.28748047 -70.0319043 75.26587891 -70.83276367 76.27392578 C-71.2483252 76.79712402 -71.66388672 77.32032227 -72.09204102 77.859375 C-74.4280338 80.75069424 -76.86147305 83.55778747 -79.28979492 86.37158203 C-80.31735642 87.56540506 -81.34469956 88.75941607 -82.37182617 89.95361328 C-82.8792334 90.54352051 -83.38664062 91.13342773 -83.90942383 91.74121094 C-87.64684159 96.09930917 -91.34357143 100.4920373 -95.04711914 104.87890625 C-96.4393891 106.52567182 -97.83484965 108.1696827 -99.23120117 109.81298828 C-103.48219551 114.81892855 -107.71043784 119.83698584 -111.85229492 124.93408203 C-115.76421757 129.73856457 -119.7737202 134.45090834 -123.81713867 139.14453125 C-126.37748848 142.11718229 -128.92731857 145.09728238 -131.44995117 148.10205078 C-131.93802246 148.68293457 -132.42609375 149.26381836 -132.92895508 149.86230469 C-133.84591561 150.9554223 -134.76109646 152.05003652 -135.67407227 153.14648438 C-138.44161615 156.44260036 -141.33699084 159.4958607 -144.41479492 162.49658203 C-142.95019539 155.03276691 -140.64694303 148.06891045 -138.07495117 140.91845703 C-137.64087448 139.69840973 -137.20679779 138.47836243 -136.75956726 137.22134399 C-135.58283885 133.91445675 -134.39952621 130.60996165 -133.21488953 127.30590057 C-131.97269875 123.8377807 -130.7366244 120.36748164 -129.49975586 116.89746094 C-126.72092784 109.10546753 -123.93274415 101.31684017 -121.14270782 93.52885437 C-119.98711047 90.30252257 -118.83258366 87.07580811 -117.67797852 83.84912109 C-116.81293117 81.43212022 -115.94786011 79.01512783 -115.08276367 76.59814453 C-114.66633606 75.4345491 -114.24990845 74.27095367 -113.82086182 73.07209778 C-111.81587074 67.47233413 -109.80646921 61.87422849 -107.78735352 56.27954102 C-104.52336317 47.22896554 -101.27713523 38.17913585 -98.22338867 29.05517578 C-97.76386094 27.69972285 -97.30392191 26.34440926 -96.84350586 24.98925781 C-96.05168754 22.64152585 -95.27822133 20.28746879 -94.52905273 17.92578125 C-94.19615234 16.94496582 -93.86325195 15.96415039 -93.52026367 14.95361328 C-93.12037231 13.71575073 -93.12037231 13.71575073 -92.71240234 12.45288086 C-90.45096276 9.04348944 -86.36172376 8.71241297 -82.52742004 7.83847046 C-81.5257933 7.64749786 -80.52416656 7.45652527 -79.4921875 7.25976562 C-78.34692093 7.03968842 -77.20165436 6.81961121 -76.02168274 6.59286499 C-74.79660507 6.36257599 -73.5715274 6.13228699 -72.30932617 5.89501953 C-71.03433762 5.65369293 -69.75934906 5.41236633 -68.44572449 5.16372681 C-65.75068681 4.65470402 -63.05499497 4.14931574 -60.35888672 3.64599609 C-56.93245065 3.00565338 -53.50863641 2.35231391 -50.0853014 1.6956234 C-46.78664215 1.06565584 -43.48533504 0.45005516 -40.18432617 -0.16748047 C-38.96936966 -0.40181793 -37.75441315 -0.6361554 -36.50263977 -0.87759399 C-35.3416124 -1.09136688 -34.18058502 -1.30513977 -32.984375 -1.52539062 C-31.97877029 -1.71477203 -30.97316559 -1.90415344 -29.93708801 -2.09927368 C-19.68421832 -3.27567741 -10.07620921 -1.83203401 0 0 Z " fill="#020080" transform="translate(146.414794921875,218.50341796875)"/>
<path d="M0 0 C1.55424683 0.35155151 1.55424683 0.35155151 3.13989258 0.71020508 C4.62054998 1.04272764 6.1012684 1.37497859 7.58203125 1.70703125 C8.38518265 1.88812943 9.18833405 2.0692276 10.01582336 2.2558136 C14.48710864 3.2540487 18.9612673 4.19793493 23.46240234 5.05224609 C61.63706705 12.34070458 61.63706705 12.34070458 69.1171875 22.06640625 C72.41059724 27.08832979 74.92223873 32.31298798 76.88305664 37.98730469 C78.30205349 41.81471913 80.1223059 45.38037456 82 49 C81.45764709 49.35665237 80.91529419 49.71330475 80.35650635 50.08076477 C74.71029137 53.79408688 69.06525488 57.50919531 63.42089844 61.2253418 C61.3144294 62.61186811 59.20766061 63.99793915 57.10058594 65.38354492 C54.07147508 67.37559214 51.04344702 69.36927576 48.015625 71.36328125 C47.07382385 71.98213699 46.13202271 72.60099274 45.16168213 73.23860168 C44.28107117 73.8189769 43.40046021 74.39935211 42.49316406 74.99731445 C41.72039124 75.5058345 40.94761841 76.01435455 40.15142822 76.5382843 C37.96679379 77.97976861 37.96679379 77.97976861 35.90667725 79.68766785 C34 81 34 81 31 81 C30.78861389 80.45274261 30.57722778 79.90548523 30.35943604 79.34164429 C27.65898619 72.35171912 24.95516669 65.36310095 22.25 58.375 C21.81948334 57.26252899 21.38896667 56.15005798 20.94540405 55.00387573 C15.16753259 40.08023927 9.34139266 25.17953911 3.30371094 10.35888672 C2.85930664 9.26205566 2.41490234 8.16522461 1.95703125 7.03515625 C1.57522705 6.1006665 1.19342285 5.16617676 0.80004883 4.20336914 C0 2 0 2 0 0 Z " fill="#020080" transform="translate(464,76)"/>
<path d="M0 0 C9.57176623 -0.10404094 19.12310517 -0.04632716 28.6875 0.375 C29.5115332 0.40585693 30.33556641 0.43671387 31.18457031 0.46850586 C39.33914549 0.86923641 45.19473283 2.57962103 51.5625 7.875 C52.46258789 8.60203125 52.46258789 8.60203125 53.38085938 9.34375 C58.2505581 13.304506 63.00509318 17.40165034 67.74609375 21.51489258 C72.31981808 25.46776957 77.03002467 29.21197092 81.80712891 32.91479492 C86.48241766 36.55310332 91.00500017 40.34806238 95.49902344 44.20703125 C99.10895826 47.292907 102.80774311 50.16950398 106.70703125 52.87890625 C107.13371094 53.24886719 107.56039062 53.61882812 108 54 C108 54.66 108 55.32 108 56 C101.5146685 54.12652933 95.16351523 52.04463632 88.84765625 49.6640625 C88.00162338 49.34853424 87.15559052 49.03300598 86.28392029 48.70791626 C81.62823162 46.96987383 76.9783191 45.21654486 72.328125 43.46386719 C70.38686557 42.73333369 68.44545863 42.00319206 66.50390625 41.2734375 C65.53784454 40.91016357 64.57178284 40.54688965 63.57644653 40.17260742 C57.34197347 37.84078927 51.0768617 35.62550537 44.77734375 33.4765625 C42.42663571 32.65926034 40.07706964 31.83877384 37.72799683 31.01678467 C36.26767741 30.51420292 34.80296658 30.024166 33.33377075 29.54815674 C22.3294833 25.97730834 16.14344769 21.07900604 9 12 C8.08470156 10.89740641 7.16543082 9.79809809 6.2421875 8.70214844 C0 1.27826065 0 1.27826065 0 0 Z " fill="#C92828" transform="translate(355,123)"/>
<path d="M0 0 C1.98 0.99 1.98 0.99 4 2 C3.67 2.66 3.34 3.32 3 4 C2.89676869 5.38074691 2.85357219 6.76623698 2.84178162 8.15078735 C2.8319928 9.02019455 2.82220398 9.88960175 2.81211853 10.78535461 C2.80636307 11.74129013 2.8006076 12.69722565 2.79467773 13.68212891 C2.78477814 14.68703873 2.77487854 15.69194855 2.76467896 16.72731018 C2.73300418 20.06037004 2.7082829 23.39344417 2.68359375 26.7265625 C2.66302939 29.03299335 2.64203306 31.33942038 2.62062073 33.64584351 C2.56534661 39.72526975 2.5159609 45.80473031 2.46777344 51.88421631 C2.41759736 58.08430038 2.361891 64.28433444 2.30664062 70.484375 C2.19899375 82.65620731 2.09756331 94.82808298 2 107 C1.34 106.67 0.68 106.34 0 106 C0 71.02 0 36.04 0 0 Z " fill="#01003B" transform="translate(439,380)"/>
<path d="M0 0 C0 0.66 0 1.32 0 2 C-2.5 3.625 -2.5 3.625 -5 5 C-5 4.34 -5 3.68 -5 3 C-6.98 3 -8.96 3 -11 3 C-7.4536218 1.02978989 -4.07768576 0 0 0 Z " fill="#01003B" transform="translate(396,304)"/>
<path d="M0 0 C2.5 1.375 2.5 1.375 5 3 C5 3.66 5 4.32 5 5 C1.7 4.01 -1.6 3.02 -5 2 C-3.68 1.67 -2.36 1.34 -1 1 C-0.67 0.67 -0.34 0.34 0 0 Z " fill="#5C1212" transform="translate(458,174)"/>
</svg>
